<mxfile host="app.diagrams.net" modified="2021-05-28T08:00:42.801Z" agent="5.0 (X11)" etag="TRGgHF6A2q0gnfTwlNA3" version="14.7.2" type="github">
  <diagram id="CK9Aaw-rIO32B7K5VY-r" name="Page-1">
    <mxGraphModel dx="1896" dy="595" grid="1" gridSize="10" guides="1" tooltips="1" connect="1" arrows="1" fold="1" page="1" pageScale="1" pageWidth="827" pageHeight="1169" math="0" shadow="0">
      <root>
        <mxCell id="0" />
        <mxCell id="1" parent="0" />
        <mxCell id="SZCdHiikP1p73m2f1Slg-14" style="edgeStyle=orthogonalEdgeStyle;rounded=1;orthogonalLoop=1;jettySize=auto;html=1;entryX=0.5;entryY=1;entryDx=0;entryDy=0;endArrow=none;endFill=0;exitX=0.5;exitY=1;exitDx=0;exitDy=0;startArrow=classic;startFill=1;gradientColor=#97d077;fillColor=#d5e8d4;strokeColor=#82b366;strokeWidth=2;" edge="1" parent="1" source="SZCdHiikP1p73m2f1Slg-1" target="SZCdHiikP1p73m2f1Slg-2">
          <mxGeometry relative="1" as="geometry">
            <mxPoint x="280" y="370" as="sourcePoint" />
            <Array as="points">
              <mxPoint x="190" y="280" />
              <mxPoint x="414" y="280" />
            </Array>
          </mxGeometry>
        </mxCell>
        <mxCell id="SZCdHiikP1p73m2f1Slg-18" style="edgeStyle=orthogonalEdgeStyle;rounded=1;orthogonalLoop=1;jettySize=auto;html=1;entryX=0;entryY=0.25;entryDx=0;entryDy=0;startArrow=none;startFill=0;endArrow=classic;endFill=1;exitX=0;exitY=0.625;exitDx=0;exitDy=0;exitPerimeter=0;fillColor=#b0e3e6;strokeColor=#0e8088;strokeWidth=2;" edge="1" parent="1" source="SZCdHiikP1p73m2f1Slg-1" target="SZCdHiikP1p73m2f1Slg-17">
          <mxGeometry relative="1" as="geometry" />
        </mxCell>
        <mxCell id="SZCdHiikP1p73m2f1Slg-25" style="edgeStyle=orthogonalEdgeStyle;rounded=1;orthogonalLoop=1;jettySize=auto;html=1;exitX=0.5;exitY=0;exitDx=0;exitDy=0;entryX=0.5;entryY=0;entryDx=0;entryDy=0;startArrow=none;startFill=0;endArrow=classic;endFill=1;fillColor=#fad7ac;strokeColor=#b46504;strokeWidth=3;" edge="1" parent="1" source="SZCdHiikP1p73m2f1Slg-1" target="SZCdHiikP1p73m2f1Slg-2">
          <mxGeometry relative="1" as="geometry" />
        </mxCell>
        <mxCell id="SZCdHiikP1p73m2f1Slg-1" value="工控机" style="whiteSpace=wrap;html=1;aspect=fixed;" vertex="1" parent="1">
          <mxGeometry x="150" y="160" width="80" height="80" as="geometry" />
        </mxCell>
        <mxCell id="SZCdHiikP1p73m2f1Slg-3" style="edgeStyle=orthogonalEdgeStyle;rounded=0;orthogonalLoop=1;jettySize=auto;html=1;entryX=1;entryY=0.5;entryDx=0;entryDy=0;fillColor=#b0e3e6;strokeColor=#0e8088;strokeWidth=2;" edge="1" parent="1" source="SZCdHiikP1p73m2f1Slg-2" target="SZCdHiikP1p73m2f1Slg-1">
          <mxGeometry relative="1" as="geometry" />
        </mxCell>
        <mxCell id="SZCdHiikP1p73m2f1Slg-2" value="超短基线处理机" style="whiteSpace=wrap;html=1;aspect=fixed;" vertex="1" parent="1">
          <mxGeometry x="374" y="160" width="80" height="80" as="geometry" />
        </mxCell>
        <mxCell id="SZCdHiikP1p73m2f1Slg-13" style="rounded=1;orthogonalLoop=1;jettySize=auto;html=1;entryX=0.31;entryY=0.8;entryDx=0;entryDy=0;entryPerimeter=0;endArrow=none;endFill=0;" edge="1" parent="1" target="SZCdHiikP1p73m2f1Slg-12">
          <mxGeometry relative="1" as="geometry">
            <mxPoint x="300" y="160" as="sourcePoint" />
          </mxGeometry>
        </mxCell>
        <mxCell id="SZCdHiikP1p73m2f1Slg-4" value="串口/带有节点编号的数据A" style="text;html=1;strokeColor=none;fillColor=none;align=center;verticalAlign=middle;whiteSpace=wrap;rounded=0;" vertex="1" parent="1">
          <mxGeometry x="250" y="170" width="100" height="20" as="geometry" />
        </mxCell>
        <mxCell id="SZCdHiikP1p73m2f1Slg-12" value="大概3-4秒1次" style="ellipse;shape=cloud;whiteSpace=wrap;html=1;" vertex="1" parent="1">
          <mxGeometry x="210" width="120" height="80" as="geometry" />
        </mxCell>
        <mxCell id="SZCdHiikP1p73m2f1Slg-15" value="TCP/处理结果C" style="text;html=1;strokeColor=none;fillColor=none;align=center;verticalAlign=middle;whiteSpace=wrap;rounded=0;" vertex="1" parent="1">
          <mxGeometry x="230" y="260" width="100" height="20" as="geometry" />
        </mxCell>
        <mxCell id="SZCdHiikP1p73m2f1Slg-21" style="edgeStyle=orthogonalEdgeStyle;rounded=1;orthogonalLoop=1;jettySize=auto;html=1;exitX=0;exitY=0.75;exitDx=0;exitDy=0;entryX=0;entryY=0.25;entryDx=0;entryDy=0;startArrow=none;startFill=0;endArrow=classic;endFill=1;fillColor=#fad7ac;strokeColor=#b46504;strokeWidth=3;" edge="1" parent="1" source="SZCdHiikP1p73m2f1Slg-17" target="SZCdHiikP1p73m2f1Slg-1">
          <mxGeometry relative="1" as="geometry">
            <Array as="points">
              <mxPoint x="80" y="435" />
              <mxPoint x="80" y="180" />
            </Array>
          </mxGeometry>
        </mxCell>
        <mxCell id="SZCdHiikP1p73m2f1Slg-17" value="拖缆节点" style="shape=process;whiteSpace=wrap;html=1;backgroundOutline=1;" vertex="1" parent="1">
          <mxGeometry x="220" y="390" width="120" height="60" as="geometry" />
        </mxCell>
        <mxCell id="SZCdHiikP1p73m2f1Slg-19" value="TCP/转发超短基线处理机串口数据A" style="text;html=1;strokeColor=none;fillColor=none;align=center;verticalAlign=middle;whiteSpace=wrap;rounded=0;" vertex="1" parent="1">
          <mxGeometry x="135" y="330" width="110" height="20" as="geometry" />
        </mxCell>
        <mxCell id="SZCdHiikP1p73m2f1Slg-22" value="TCP/转发节点发送到超短基线原始数据B" style="text;html=1;strokeColor=none;fillColor=none;align=center;verticalAlign=middle;whiteSpace=wrap;rounded=0;" vertex="1" parent="1">
          <mxGeometry x="284" y="110" width="130" height="20" as="geometry" />
        </mxCell>
        <mxCell id="SZCdHiikP1p73m2f1Slg-24" value="&lt;br&gt;&lt;h1&gt;数据&lt;/h1&gt;&lt;div&gt;&lt;ul&gt;&lt;li&gt;数据A&lt;/li&gt;&lt;ul&gt;&lt;li&gt;超短基线处理PC发给节点各个超短基线单元的数据，走蓝线&lt;br&gt;&lt;/li&gt;&lt;/ul&gt;&lt;li&gt;数据B&lt;/li&gt;&lt;ul&gt;&lt;li&gt;超短基线节点单元发给处理机的数据，走褐色线&lt;br&gt;&lt;/li&gt;&lt;/ul&gt;&lt;li&gt;数据C&lt;/li&gt;&lt;ul&gt;&lt;li&gt;超短基线测量结果，走绿线&lt;br&gt;&lt;/li&gt;&lt;/ul&gt;&lt;/ul&gt;&lt;/div&gt;" style="text;html=1;strokeColor=none;spacing=5;spacingTop=-20;whiteSpace=wrap;overflow=hidden;rounded=1;shadow=1;fillColor=#D4E1F5;glass=0;sketch=0;" vertex="1" parent="1">
          <mxGeometry x="490" y="200" width="290" height="220" as="geometry" />
        </mxCell>
        <mxCell id="SZCdHiikP1p73m2f1Slg-27" value="TCP/节点发送超短基线原始数据B" style="text;html=1;strokeColor=none;fillColor=none;align=center;verticalAlign=middle;whiteSpace=wrap;rounded=0;" vertex="1" parent="1">
          <mxGeometry x="-50" y="300" width="130" height="20" as="geometry" />
        </mxCell>
      </root>
    </mxGraphModel>
  </diagram>
</mxfile>
